<svg width="30" height="30" viewBox="0 0 30 30" fill="none" xmlns="http://www.w3.org/2000/svg">
<path fill-rule="evenodd" clip-rule="evenodd" d="M15 26.4844C8.65734 26.4844 3.51562 21.3427 3.51562 15C3.51562 8.65734 8.65734 3.51562 15 3.51562C21.3427 3.51562 26.4844 8.65734 26.4844 15C26.4844 21.3427 21.3427 26.4844 15 26.4844ZM15 25.6641C20.8896 25.6641 25.6641 20.8896 25.6641 15C25.6641 9.11039 20.8896 4.33594 15 4.33594C9.11039 4.33594 4.33594 9.11039 4.33594 15C4.33594 20.8896 9.11039 25.6641 15 25.6641Z" fill="white"/>
<path fill-rule="evenodd" clip-rule="evenodd" d="M6.11328 11.0733C6.60477 9.89795 7.31 9.21475 7.50043 9.0215C7.69086 8.82838 7.96121 8.9226 8.14226 9.0215C8.32332 9.12053 12.8618 13.6663 13.0644 13.8946C13.2669 14.1229 13.4816 14.4635 12.9002 14.4635C12.3187 14.4635 6.60629 14.4135 6.11328 14.3795C5.62016 14.3454 5.47461 14.0579 5.47461 13.8122C5.47461 13.5666 5.62168 12.2488 6.11328 11.0733ZM11.6037 6.01635C12.7825 5.53271 13.6229 5.56447 13.8942 5.5626C14.1655 5.56072 14.2899 5.81842 14.348 6.01635C14.4061 6.21439 14.4482 12.6767 14.4301 12.9813C14.4118 13.286 14.4168 13.6238 14.0057 13.2126C13.5945 12.8015 9.59047 8.72689 9.26598 8.35424C8.94137 7.98146 9.0418 7.67514 9.21559 7.50146C9.38926 7.32779 10.4248 6.5001 11.6037 6.01635ZM18.8098 6.11279C19.9852 6.60428 20.6684 7.30951 20.8617 7.49994C21.0548 7.69037 20.9606 7.96072 20.8617 8.14178C20.7627 8.32283 16.2168 12.8613 15.9886 13.0639C15.7603 13.2664 15.4197 13.4811 15.4197 12.8997C15.4197 12.3182 15.4696 6.6058 15.5036 6.11279C15.5377 5.61967 15.8253 5.47412 16.0709 5.47412C16.3166 5.47412 17.6343 5.62119 18.8098 6.11279ZM23.8668 11.6033C24.3505 12.782 24.3187 13.6224 24.3206 13.8937C24.3225 14.165 24.0648 14.2894 23.8668 14.3476C23.6688 14.4056 17.2065 14.4478 16.9019 14.4296C16.5972 14.4113 16.2594 14.4163 16.6706 14.0053C17.0817 13.594 21.1563 9.58998 21.5289 9.26549C21.9017 8.94088 22.208 9.04131 22.3817 9.2151C22.5554 9.38877 23.3831 10.4244 23.8668 11.6033ZM23.7704 18.9265C23.2789 20.1019 22.5737 20.7851 22.3832 20.9784C22.1928 21.1715 21.9225 21.0773 21.7414 20.9784C21.5603 20.8794 17.0219 16.3335 16.8193 16.1053C16.6168 15.877 16.4021 15.5364 16.9835 15.5364C17.565 15.5364 23.2774 15.5863 23.7704 15.6203C24.2635 15.6544 24.4091 15.942 24.4091 16.1876C24.4091 16.4333 24.262 17.751 23.7704 18.9265ZM18.2799 23.9835C17.1011 24.4672 16.2608 24.4354 15.9895 24.4373C15.7182 24.4392 15.5937 24.1815 15.5356 23.9835C15.4776 23.7855 15.4354 17.3232 15.4536 17.0186C15.4719 16.7139 15.4668 16.3761 15.8779 16.7873C16.2891 17.1984 20.2932 21.273 20.6177 21.6456C20.9423 22.0184 20.8419 22.3247 20.6681 22.4984C20.4944 22.6721 19.4587 23.4998 18.2798 23.9835H18.2799ZM11.0738 23.8871C9.89844 23.3956 9.21523 22.6904 9.02199 22.4999C8.82887 22.3095 8.92309 22.0392 9.02199 21.8581C9.12101 21.677 13.6668 17.1386 13.8951 16.936C14.1234 16.7335 14.4639 16.5188 14.4639 17.1002C14.4639 17.6817 14.414 23.3941 14.38 23.8871C14.3459 24.3802 14.0584 24.5258 13.8127 24.5258C13.5671 24.5258 12.2493 24.3787 11.0738 23.8871ZM6.01684 18.3966C5.5332 17.2178 5.56496 16.3775 5.56309 16.1062C5.56121 15.8349 5.81891 15.7104 6.01684 15.6523C6.21488 15.5943 12.6772 15.5521 12.9818 15.5703C13.2864 15.5886 13.6243 15.5835 13.2131 15.9946C12.802 16.4058 8.72738 20.4099 8.35473 20.7344C7.98195 21.059 7.67562 20.9586 7.50195 20.7848C7.32828 20.6111 6.50059 19.5754 6.01684 18.3965V18.3966Z" fill="white"/>
</svg>
